<svg width="242" height="30" viewBox="0 0 242 30" fill="none" xmlns="http://www.w3.org/2000/svg">
    <path fill-rule="evenodd" clip-rule="evenodd" d="M0 3.99996C0 1.79662 1.78148 0.00936276 3.98262 0H18.9645C15.4086 1.13633 11.6916 3.52939 8.53681 6.9736L26.5384 0H31.0174C33.2185 0.00936276 35 1.79662 35 3.99996V26C35 28.2091 33.2091 30 31 30H14.5509C15.3774 29.7785 16.2157 29.4872 17.0565 29.1287L15.2616 15.8L2.65394 17.3252C1.45202 21.8842 2.1508 26.0795 4.96912 28.514C5.73585 29.1763 6.61393 29.669 7.57555 30H4C1.79086 30 0 28.2091 0 26V3.99996ZM2.70382 17.1397L31.9528 5.75645C31.8473 5.28918 31.7112 4.83859 31.544 4.40729L3.28412 15.3548C3.05933 15.9535 2.86574 16.5495 2.70382 17.1397ZM31.9764 5.86387L19.7384 14.4L17.1478 29.0895C20.2262 27.7594 23.334 25.5304 26.0151 22.5321C30.8699 17.103 33 10.6341 31.9764 5.86387ZM6.93172 8.88524C6.53049 9.4078 6.15329 9.93701 5.80045 10.4707L29.4267 1.31813C29.401 1.29529 29.3751 1.27259 29.349 1.25005C29.0546 0.995733 28.7437 0.766427 28.418 0.561685L6.93172 8.88524ZM3.92872 13.8153L31.0309 3.31621C30.8223 2.94478 30.586 2.59241 30.3217 2.26127L4.7729 12.1586C4.4657 12.7094 4.18419 13.2624 3.92872 13.8153Z" fill="white"/>
    <path fill-rule="evenodd" clip-rule="evenodd" d="M40 3V10.2115H49V28H56V10.2115H64L74 20.3077L67.5 28H76.5L88.5 13.5769V26.0769L90.5 28H108L113 22.2308H96V9.73077H108L118 20.3077L112 28H121L134 10.6923V28H141V21.2692H158L160 19.3462V4.92308L158 3H131.5L122.5 14.5385L111 3H87L78 14.5385L67 3H40ZM153 9.73077H141V15.5H153V9.73077Z" fill="white"/>
    <rect x="165" width="2" height="30" rx="1" fill="white"/>
    <path d="M177.458 3.76074H174.488V12H173.275V3.76074H170.311V2.75781H177.458V3.76074ZM185.336 2.75781V9.04199C185.332 9.91374 185.057 10.6268 184.511 11.1812C183.969 11.7355 183.233 12.0465 182.302 12.1143L181.978 12.127C180.967 12.127 180.16 11.854 179.56 11.3081C178.959 10.7622 178.654 10.0111 178.646 9.05469V2.75781H179.852V9.0166C179.852 9.68522 180.036 10.2057 180.404 10.5781C180.772 10.9463 181.297 11.1304 181.978 11.1304C182.668 11.1304 183.195 10.9463 183.559 10.5781C183.927 10.21 184.111 9.69157 184.111 9.02295V2.75781H185.336ZM189.982 7.88037C188.937 7.57992 188.175 7.21175 187.697 6.77588C187.223 6.33577 186.986 5.79411 186.986 5.15088C186.986 4.42301 187.276 3.8221 187.856 3.34814C188.44 2.86995 189.197 2.63086 190.128 2.63086C190.763 2.63086 191.328 2.75358 191.823 2.99902C192.323 3.24447 192.708 3.58301 192.979 4.01465C193.254 4.44629 193.391 4.91813 193.391 5.43018H192.166C192.166 4.87158 191.988 4.43359 191.633 4.11621C191.277 3.7946 190.776 3.63379 190.128 3.63379C189.528 3.63379 189.058 3.76709 188.719 4.03369C188.385 4.29606 188.218 4.66211 188.218 5.13184C188.218 5.50846 188.376 5.82796 188.694 6.09033C189.015 6.34847 189.559 6.58545 190.325 6.80127C191.095 7.01709 191.696 7.25618 192.128 7.51855C192.564 7.77669 192.885 8.07926 193.093 8.42627C193.304 8.77327 193.41 9.18164 193.41 9.65137C193.41 10.4004 193.118 11.0013 192.534 11.4541C191.95 11.9027 191.169 12.127 190.192 12.127C189.557 12.127 188.965 12.0063 188.415 11.7651C187.864 11.5197 187.439 11.1854 187.139 10.7622C186.842 10.339 186.694 9.85872 186.694 9.32129H187.919C187.919 9.87988 188.125 10.3221 188.535 10.6479C188.95 10.9696 189.502 11.1304 190.192 11.1304C190.835 11.1304 191.328 10.9992 191.671 10.7368C192.014 10.4744 192.185 10.1169 192.185 9.66406C192.185 9.21126 192.026 8.86214 191.709 8.6167C191.392 8.36702 190.816 8.12158 189.982 7.88037ZM201.484 2.75781V9.04199C201.48 9.91374 201.205 10.6268 200.659 11.1812C200.118 11.7355 199.381 12.0465 198.45 12.1143L198.126 12.127C197.115 12.127 196.309 11.854 195.708 11.3081C195.107 10.7622 194.802 10.0111 194.794 9.05469V2.75781H196V9.0166C196 9.68522 196.184 10.2057 196.552 10.5781C196.92 10.9463 197.445 11.1304 198.126 11.1304C198.816 11.1304 199.343 10.9463 199.707 10.5781C200.075 10.21 200.259 9.69157 200.259 9.02295V2.75781H201.484ZM206.797 8.26123H204.626V12H203.401V2.75781H206.461C207.502 2.75781 208.302 2.99479 208.86 3.46875C209.423 3.94271 209.705 4.63249 209.705 5.53809C209.705 6.11361 209.548 6.61507 209.235 7.04248C208.926 7.46989 208.494 7.78939 207.94 8.00098L210.111 11.9238V12H208.803L206.797 8.26123ZM204.626 7.26465H206.499C207.104 7.26465 207.584 7.10807 207.94 6.79492C208.3 6.48177 208.479 6.06283 208.479 5.53809C208.479 4.9668 208.308 4.52881 207.965 4.22412C207.627 3.91943 207.136 3.76497 206.493 3.76074H204.626V7.26465ZM177.579 17.7578V24.042C177.575 24.9137 177.3 25.6268 176.754 26.1812C176.212 26.7355 175.476 27.0465 174.545 27.1143L174.221 27.127C173.21 27.127 172.404 26.854 171.803 26.3081C171.202 25.7622 170.897 25.0111 170.889 24.0547V17.7578H172.095V24.0166C172.095 24.6852 172.279 25.2057 172.647 25.5781C173.015 25.9463 173.54 26.1304 174.221 26.1304C174.911 26.1304 175.438 25.9463 175.802 25.5781C176.17 25.21 176.354 24.6916 176.354 24.0229V17.7578H177.579ZM186.605 27H185.38L180.728 19.8779V27H179.502V17.7578H180.728L185.393 24.9116V17.7578H186.605V27ZM190.078 27H188.859V17.7578H190.078V27ZM195.372 25.3813L198.012 17.7578H199.345L195.917 27H194.838L191.417 17.7578H192.744L195.372 25.3813ZM205.813 22.728H201.808V26.0034H206.461V27H200.589V17.7578H206.397V18.7607H201.808V21.7314H205.813V22.728ZM211.368 23.2612H209.197V27H207.972V17.7578H211.031C212.072 17.7578 212.872 17.9948 213.431 18.4688C213.993 18.9427 214.275 19.6325 214.275 20.5381C214.275 21.1136 214.118 21.6151 213.805 22.0425C213.496 22.4699 213.065 22.7894 212.51 23.001L214.681 26.9238V27H213.374L211.368 23.2612ZM209.197 22.2646H211.069C211.674 22.2646 212.155 22.1081 212.51 21.7949C212.87 21.4818 213.05 21.0628 213.05 20.5381C213.05 19.9668 212.878 19.5288 212.536 19.2241C212.197 18.9194 211.706 18.765 211.063 18.7607H209.197V22.2646ZM218.712 22.8804C217.667 22.5799 216.905 22.2118 216.427 21.7759C215.953 21.3358 215.716 20.7941 215.716 20.1509C215.716 19.423 216.006 18.8221 216.585 18.3481C217.169 17.87 217.927 17.6309 218.858 17.6309C219.493 17.6309 220.058 17.7536 220.553 17.999C221.052 18.2445 221.437 18.583 221.708 19.0146C221.983 19.4463 222.121 19.9181 222.121 20.4302H220.896C220.896 19.8716 220.718 19.4336 220.362 19.1162C220.007 18.7946 219.505 18.6338 218.858 18.6338C218.257 18.6338 217.787 18.7671 217.449 19.0337C217.114 19.2961 216.947 19.6621 216.947 20.1318C216.947 20.5085 217.106 20.828 217.423 21.0903C217.745 21.3485 218.289 21.5854 219.055 21.8013C219.825 22.0171 220.426 22.2562 220.857 22.5186C221.293 22.7767 221.615 23.0793 221.822 23.4263C222.034 23.7733 222.14 24.1816 222.14 24.6514C222.14 25.4004 221.848 26.0013 221.264 26.4541C220.68 26.9027 219.899 27.127 218.921 27.127C218.287 27.127 217.694 27.0063 217.144 26.7651C216.594 26.5197 216.169 26.1854 215.868 25.7622C215.572 25.339 215.424 24.8587 215.424 24.3213H216.649C216.649 24.8799 216.854 25.3221 217.265 25.6479C217.679 25.9696 218.232 26.1304 218.921 26.1304C219.565 26.1304 220.058 25.9992 220.4 25.7368C220.743 25.4744 220.915 25.1169 220.915 24.6641C220.915 24.2113 220.756 23.8621 220.438 23.6167C220.121 23.367 219.546 23.1216 218.712 22.8804ZM225.015 27H223.796V17.7578H225.015V27ZM233.445 18.7607H230.474V27H229.262V18.7607H226.297V17.7578H233.445V18.7607ZM237.736 22.3979L240.148 17.7578H241.532L238.345 23.5532V27H237.126V23.5532L233.94 17.7578H235.336L237.736 22.3979Z" fill="white"/>
</svg>
