<svg width="22" height="25" viewBox="0 0 22 25" fill="none" xmlns="http://www.w3.org/2000/svg">
    <path fill-rule="evenodd" clip-rule="evenodd" d="M2.20001 1.1C2.20001 0.492486 2.6925 0 3.30001 0C3.90752 0 4.40001 0.492487 4.40001 1.1V4.25714C4.40001 4.86466 3.90752 5.35714 3.30001 5.35714C2.6925 5.35714 2.20001 4.86466 2.20001 4.25714V1.1ZM1.46666 2.67853V4.4167C1.46666 5.42922 2.28747 6.25003 3.29999 6.25003C4.31251 6.25003 5.13332 5.42922 5.13332 4.4167V2.67853H6.59996V4.4167C6.59996 5.42922 7.42077 6.25003 8.4333 6.25003C9.44582 6.25003 10.2666 5.42922 10.2666 4.4167V2.67853H11.7333V4.4167C11.7333 5.42922 12.5541 6.25003 13.5667 6.25003C14.5792 6.25003 15.4 5.42922 15.4 4.4167V2.67853H16.8667V4.4167C16.8667 5.42922 17.6875 6.25003 18.7 6.25003C19.7125 6.25003 20.5333 5.42922 20.5333 4.4167V2.67853H22V21C22 23.2091 20.2091 25 18 25H4C1.79086 25 0 23.2091 0 21V2.67853H1.46666ZM1.46666 8.03571H20.5333V20.2143C20.5333 21.8711 19.1902 23.2143 17.5333 23.2143H4.46666C2.8098 23.2143 1.46666 21.8711 1.46666 20.2143V8.03571ZM8.43333 0C7.82582 0 7.33333 0.492486 7.33333 1.1V4.25714C7.33333 4.86466 7.82582 5.35714 8.43333 5.35714C9.04085 5.35714 9.53333 4.86466 9.53333 4.25714V1.1C9.53333 0.492487 9.04085 0 8.43333 0ZM12.4667 1.1C12.4667 0.492486 12.9591 0 13.5667 0C14.1742 0 14.6667 0.492487 14.6667 1.1V4.25714C14.6667 4.86466 14.1742 5.35714 13.5667 5.35714C12.9591 5.35714 12.4667 4.86466 12.4667 4.25714V1.1ZM18.7 0C18.0925 0 17.6 0.492486 17.6 1.1V4.25714C17.6 4.86466 18.0925 5.35714 18.7 5.35714C19.3075 5.35714 19.8 4.86466 19.8 4.25714V1.1C19.8 0.492487 19.3075 0 18.7 0ZM6.51852 9.16669H8.96296V11.6667H6.51852V9.16669ZM12.2222 9.16669H9.77778V11.6667H12.2222V9.16669ZM13.037 9.16669H15.4815V11.6667H13.037V9.16669ZM18.7407 9.16669H16.2963V11.6667H18.7407V9.16669ZM3.25926 12.5H5.7037V15H3.25926V12.5ZM8.96296 12.5H6.51852V15H8.96296V12.5ZM9.77778 12.5H12.2222V15H9.77778V12.5ZM15.4815 12.5H13.037V15H15.4815V12.5ZM16.2963 12.5H18.7407V15H16.2963V12.5ZM5.7037 15.8333H3.25926V18.3333H5.7037V15.8333ZM6.51852 15.8333H8.96296V18.3333H6.51852V15.8333ZM12.2222 15.8333H9.77778V18.3333H12.2222V15.8333ZM13.037 15.8333H15.4815V18.3333H13.037V15.8333ZM18.7407 15.8333H16.2963V18.3333H18.7407V15.8333ZM3.25926 19.1667H5.7037V21.6667H3.25926V19.1667ZM8.96296 19.1667H6.51852V21.6667H8.96296V19.1667ZM9.77778 19.1667H12.2222V21.6667H9.77778V19.1667ZM15.4815 19.1667H13.037V21.6667H15.4815V19.1667Z" fill="#005BAC"/>
</svg>
