<svg width="360" height="308" viewBox="0 0 360 308" fill="none" xmlns="http://www.w3.org/2000/svg">
    <path d="M42.9194 25.3965L30.2396 43.1305M42.9194 25.3965L49.3022 44.7725M42.9194 25.3965L28.6239 13.1279M30.2396 43.1305L49.3022 44.7725M30.2396 43.1305L34.8299 59.5292M30.2396 43.1305L28.6239 13.1279M30.2396 43.1305L7.48935 42.7435M30.2396 43.1305L17.1858 33.9779M49.3022 44.7725L34.8299 59.5292M49.3022 44.7725L77.8648 47.5884M49.3022 44.7725L56.7247 65.3271M34.8299 59.5292L56.7247 65.3271M34.8299 59.5292L28.4535 79.2508M77.8648 47.5884L56.7247 65.3271M77.8648 47.5884L73.4509 85.2606M56.7247 65.3271L28.4535 79.2508M56.7247 65.3271L46.1284 92.5091M56.7247 65.3271L73.4509 85.2606M28.4535 79.2508L46.1284 92.5091M46.1284 92.5091L73.4509 85.2606M46.1284 92.5091L63.7244 98.6479M73.4509 85.2606L74.9824 112.065M73.4509 85.2606L63.7244 98.6479M73.4509 85.2606L86.748 91.7404M74.9824 112.065L63.7244 98.6479M74.9824 112.065L86.748 91.7404M74.9824 112.065L95.7706 110.299M86.748 91.7404L95.7706 110.299M86.748 91.7404L99.9824 98.9261M95.7706 110.299L99.9824 98.9261M95.7706 110.299L120.239 119.164M95.7706 110.299L105.783 141.746M99.9824 98.9261L134.499 94.7867M99.9824 98.9261L120.239 119.164M134.499 94.7867L120.239 119.164M134.499 94.7867L149.562 117.422M120.239 119.164L105.783 141.746M120.239 119.164L133.255 144.823M120.239 119.164L142.864 136.76M120.239 119.164L149.562 117.422M105.783 141.746L133.255 144.823M133.255 144.823L142.864 136.76M133.255 144.823L148.278 147.895M133.255 144.823L137.9 156.604M142.864 136.76L149.562 117.422M142.864 136.76L148.278 147.895M148.278 147.895L137.9 156.604M148.278 147.895L149.204 161.489M137.9 156.604L112.115 162.562M137.9 156.604L129.484 183.262M137.9 156.604L149.204 161.489M112.115 162.562L129.484 183.262M112.115 162.562L106.163 201.524M112.115 162.562L89.8869 186.034M129.484 183.262L149.204 161.489M129.484 183.262L106.163 201.524M129.484 183.262L140.139 215.475M129.484 183.262L156.283 201.929M129.484 183.262L162.346 185.737M149.204 161.489L162.346 185.737M106.163 201.524L140.139 215.475M106.163 201.524L89.3254 214.585M106.163 201.524L89.8869 186.034M140.139 215.475L156.283 201.929M156.283 201.929L162.346 185.737M156.283 201.929L170.403 203.146M162.346 185.737L170.403 203.146M162.346 185.737L175.815 182.274M170.403 203.146L175.815 182.274M170.403 203.146L191.897 201.441M175.815 182.274L191.897 201.441M175.815 182.274L190.775 186.052M191.897 201.441L190.775 186.052M191.897 201.441L201.962 196.262M190.775 186.052L201.962 196.262M190.775 186.052L203.546 186.441M201.962 196.262L203.546 186.441M201.962 196.262L228.344 199.601M201.962 196.262L219.198 214.461M203.546 186.441L228.344 199.601M203.546 186.441L224.694 172.615M228.344 199.601L219.198 214.461M228.344 199.601L224.694 172.615M228.344 199.601L245.302 176.879M228.344 199.601L256.961 197.799M228.344 199.601L238.716 218.988M228.344 199.601L253.839 208.91M219.198 214.461L238.716 218.988M224.694 172.615L245.302 176.879M245.302 176.879L256.961 197.799M256.961 197.799L253.839 208.91M238.716 218.988L253.839 208.91M238.716 218.988L257.331 221.658M238.716 218.988L246.193 234.924M253.839 208.91L257.331 221.658M257.331 221.658L246.193 234.924M257.331 221.658L259.741 238.58M246.193 234.924L259.741 238.58M246.193 234.924L238.216 256.641M259.741 238.58L238.216 256.641M259.741 238.58L256.919 270.344M259.741 238.58L284.939 259.243M238.216 256.641L256.919 270.344M238.216 256.641L237.7 286.47M256.919 270.344L237.7 286.47M256.919 270.344L284.939 259.243M256.919 270.344L272.17 290.861M237.7 286.47L272.17 290.861M284.939 259.243L272.17 290.861M284.939 259.243L287.678 280.461M284.939 259.243L296.502 265.218M272.17 290.861L287.678 280.461M287.678 280.461L296.502 265.218M287.678 280.461L301.791 277.765M296.502 265.218L301.791 277.765M296.502 265.218L308.826 266.635M301.791 277.765L308.826 266.635M301.791 277.765L314.444 283.478M308.826 266.635L314.444 283.478M308.826 266.635L330.972 269.61M314.444 283.478L330.972 269.61M314.444 283.478L331.193 283.143M330.972 269.61L331.193 283.143M330.972 269.61L353.237 278.64M330.972 269.61L352.225 253.63M331.193 283.143L346.848 297.632M331.193 283.143L353.237 278.64M89.8869 186.034L89.3254 214.585M89.8869 186.034L78.6952 194.361M89.3254 214.585L78.6952 194.361M89.3254 214.585L72.347 211.29M78.6952 194.361L72.347 211.29M78.6952 194.361L59.0537 199.038M72.347 211.29L59.0537 199.038M72.347 211.29L53.4535 231.645M59.0537 199.038L39.1285 218.139M59.0537 199.038L44.188 191.168M59.0537 199.038L53.4535 231.645M39.1285 218.139L44.188 191.168M39.1285 218.139L18.8395 204.766M39.1285 218.139L23.2693 234.404M39.1285 218.139L53.4535 231.645M44.188 191.168L18.8395 204.766M44.188 191.168L26.3253 187.458M18.8395 204.766L23.2693 234.404M18.8395 204.766L26.3253 187.458M18.8395 204.766L8.52456 168.515M18.8395 204.766L4.47916 195.793M23.2693 234.404L53.4535 231.645M26.3253 187.458L8.52456 168.515M8.52456 168.515L4.47916 195.793M8.52456 168.515L-10.5173 168.191L4.47916 195.793M353.237 278.64L352.225 253.63M353.237 278.64L346.848 297.632M353.237 278.64L374.383 306.443M353.237 278.64L367.196 280.356M352.225 253.63L367.196 280.356M352.225 253.63L367.229 255.388L367.196 280.356M367.196 280.356L374.383 306.443M374.383 306.443L346.848 297.632M28.6239 13.1279L17.1858 33.9779M28.6239 13.1279L-0.990535 1.35013L-1.01009 16.1312M28.6239 13.1279L-1.01009 16.1312M7.48935 42.7435L17.1858 33.9779M7.48935 42.7435L-1.01009 16.1312M7.48935 42.7435L-15.6898 23.3974L-1.01009 16.1312M17.1858 33.9779L-1.01009 16.1312" stroke="black" stroke-opacity="0.1"/>
</svg>
