<svg width="26" height="25" viewBox="0 0 26 25" fill="none" xmlns="http://www.w3.org/2000/svg">
    <path fill-rule="evenodd" clip-rule="evenodd" d="M9.50818 0.798133C9.60396 0.333425 10.0131 0 10.4876 0H14.7132C15.1877 0 15.5968 0.333425 15.6926 0.798133L16.2518 3.51145C17.1952 3.8726 18.0681 4.36954 18.8449 4.97745L21.5706 4.0827C22.0268 3.93296 22.5318 4.12102 22.7761 4.5316L24.8629 8.03902C25.1072 8.4496 25.0226 8.96801 24.6608 9.27648L22.4587 11.1544C22.5219 11.5941 22.5546 12.0433 22.5546 12.5C22.5546 12.9784 22.5187 13.4486 22.4495 13.9084L24.6608 15.7941C25.0226 16.1026 25.1072 16.621 24.8629 17.0316L22.776 20.539C22.5318 20.9496 22.0268 21.1376 21.5706 20.9879L18.7809 20.0722C18.0203 20.6575 17.1694 21.1372 16.2518 21.4885L15.6926 24.2019C15.5968 24.6666 15.1876 25 14.7131 25H10.4876C10.0131 25 9.60392 24.6666 9.50814 24.2019L8.94888 21.4885C8.00747 21.1281 7.13627 20.6325 6.36071 20.0263L3.43118 20.9879C2.97501 21.1377 2.47001 20.9496 2.22572 20.539L0.138844 17.0316C-0.105448 16.621 -0.020783 16.1026 0.340943 15.7942L2.7297 13.7571C2.67459 13.3456 2.64616 12.926 2.64616 12.5C2.64616 12.0959 2.67174 11.6976 2.7214 11.3065L0.340976 9.2765C-0.0207498 8.96803 -0.105415 8.44962 0.138876 8.03904L2.22575 4.53162C2.47004 4.12103 2.97505 3.93298 3.43121 4.08272L6.29737 5.02357C7.08875 4.39463 7.98179 3.88166 8.94894 3.51143L9.50818 0.798133ZM17.2847 12.5C17.2847 15.0104 15.1875 17.0454 12.6004 17.0454C10.0133 17.0454 7.91604 15.0104 7.91604 12.5C7.91604 9.98961 10.0133 7.95454 12.6004 7.95454C15.1875 7.95454 17.2847 9.98961 17.2847 12.5Z" fill="#005BAC"/>
</svg>
